{
  "accessors": [
    {
      "bufferView": 2,
      "componentType": 5126,
      "count": 132,
      "max": [
        10.279500007629395,
        9.998299598693848,
        108.1885986328125
      ],
      "min": [
        -8.538800239562988,
        -9.71030044555664,
        92.42350006103516
      ],
      "type": "VEC3"
    },
    {
      "bufferView": 2,
      "byteOffset": 1584,
      "componentType": 5126,
      "count": 132,
      "max": [
        0.9848158359527588,
        0.9397000074386597,
        0.999724805355072
      ],
      "min": [
        -0.9848158359527588,
        -0.9397000074386597,
        -0.999724805355072
      ],
      "type": "VEC3"
    },
    {
      "bufferView": 3,
      "componentType": 5126,
      "count": 132,
      "max": [
        0.9397000074386597,
        0.9848158359527588,
        0.8335773348808289,
        1.0
      ],
      "min": [
        -0.9397000074386597,
        -0.9848158359527588,
        -0.8335773944854736,
        1.0
      ],
      "type": "VEC4"
    },
    {
      "bufferView": 1,
      "componentType": 5126,
      "count": 132,
      "max": [
        0.975600004196167,
        0.6488000154495239
      ],
      "min": [
        0.024399999529123306,
        0.021900000050663948
      ],
      "type": "VEC2"
    },
    {
      "bufferView": 0,
      "componentType": 5125,
      "count": 360,
      "type": "SCALAR"
    },
    {
      "bufferView": 2,
      "byteOffset": 3168,
      "componentType": 5126,
      "count": 2465,
      "max": [
        14.515899658203125,
        -1.8906999826431274,
        88.42369842529297
      ],
      "min": [
        -0.7419999837875366,
        -24.866199493408203,
        75.53700256347656
      ],
      "type": "VEC3"
    },
    {
      "bufferView": 2,
      "byteOffset": 32748,
      "componentType": 5126,
      "count": 2465,
      "max": [
        0.9999802112579346,
        0.9989779591560364,
        1.0
      ],
      "min": [
        -0.9999219179153442,
        -0.9999219179153442,
        -1.0
      ],
      "type": "VEC3"
    },
    {
      "bufferView": 3,
      "byteOffset": 2112,
      "componentType": 5126,
      "count": 2465,
      "max": [
        0.999724805355072,
        0.9999692440032959,
        1.0,
        1.0
      ],
      "min": [
        -0.9999219179153442,
        -0.9999801516532898,
        -1.0,
        -1.0
      ],
      "type": "VEC4"
    },
    {
      "bufferView": 1,
      "byteOffset": 1056,
      "componentType": 5126,
      "count": 2465,
      "max": [
        6.691199779510498,
        0.9984999895095825
      ],
      "min": [
        0.007899999618530273,
        -0.011800000444054604
      ],
      "type": "VEC2"
    },
    {
      "bufferView": 0,
      "byteOffset": 1440,
      "componentType": 5125,
      "count": 7290,
      "type": "SCALAR"
    },
    {
      "bufferView": 2,
      "byteOffset": 62328,
      "componentType": 5126,
      "count": 240,
      "max": [
        2.3405001163482666,
        2.363800048828125,
        119.10369873046875
      ],
      "min": [
        -2.335900068283081,
        -22.682300567626953,
        113.78150177001953
      ],
      "type": "VEC3"
    },
    {
      "bufferView": 2,
      "byteOffset": 65208,
      "componentType": 5126,
      "count": 240,
      "max": [
        1.0,
        1.0,
        1.0
      ],
      "min": [
        -1.0,
        -1.0,
        -1.0
      ],
      "type": "VEC3"
    },
    {
      "bufferView": 3,
      "byteOffset": 41552,
      "componentType": 5126,
      "count": 240,
      "max": [
        1.0,
        1.0,
        1.0,
        1.0
      ],
      "min": [
        -1.0,
        -1.0,
        -1.0,
        1.0
      ],
      "type": "VEC4"
    },
    {
      "bufferView": 1,
      "byteOffset": 20776,
      "componentType": 5126,
      "count": 240,
      "max": [
        0.9896000027656555,
        0.9902999997138977
      ],
      "min": [
        0.0215000007301569,
        0.018699999898672104
      ],
      "type": "VEC2"
    },
    {
      "bufferView": 0,
      "byteOffset": 30600,
      "componentType": 5125,
      "count": 624,
      "type": "SCALAR"
    },
    {
      "bufferView": 2,
      "byteOffset": 68088,
      "componentType": 5126,
      "count": 240,
      "max": [
        22.682300567626953,
        2.3405001163482666,
        125.79499816894531
      ],
      "min": [
        -2.363800048828125,
        -2.335900068283081,
        120.4728012084961
      ],
      "type": "VEC3"
    },
    {
      "bufferView": 2,
      "byteOffset": 70968,
      "componentType": 5126,
      "count": 240,
      "max": [
        1.0,
        1.0,
        1.0
      ],
      "min": [
        -1.0,
        -1.0,
        -1.0
      ],
      "type": "VEC3"
    },
    {
      "bufferView": 3,
      "byteOffset": 45392,
      "componentType": 5126,
      "count": 240,
      "max": [
        1.0,
        1.0,
        1.0,
        1.0
      ],
      "min": [
        -1.0,
        -1.0,
        -1.0,
        1.0
      ],
      "type": "VEC4"
    },
    {
      "bufferView": 1,
      "byteOffset": 22696,
      "componentType": 5126,
      "count": 240,
      "max": [
        0.9896000027656555,
        0.9902999997138977
      ],
      "min": [
        0.0215000007301569,
        0.018699999898672104
      ],
      "type": "VEC2"
    },
    {
      "bufferView": 0,
      "byteOffset": 33096,
      "componentType": 5125,
      "count": 624,
      "type": "SCALAR"
    },
    {
      "bufferView": 2,
      "byteOffset": 73848,
      "componentType": 5126,
      "count": 240,
      "max": [
        2.335900068283081,
        22.682300567626953,
        132.8341064453125
      ],
      "min": [
        -2.3405001163482666,
        -2.363800048828125,
        127.51190185546875
      ],
      "type": "VEC3"
    },
    {
      "bufferView": 2,
      "byteOffset": 76728,
      "componentType": 5126,
      "count": 240,
      "max": [
        1.0,
        1.0,
        1.0
      ],
      "min": [
        -1.0,
        -1.0,
        -1.0
      ],
      "type": "VEC3"
    },
    {
      "bufferView": 3,
      "byteOffset": 49232,
      "componentType": 5126,
      "count": 240,
      "max": [
        1.0,
        1.0,
        1.0,
        1.0
      ],
      "min": [
        -1.0,
        -1.0,
        -1.0,
        1.0
      ],
      "type": "VEC4"
    },
    {
      "bufferView": 1,
      "byteOffset": 24616,
      "componentType": 5126,
      "count": 240,
      "max": [
        0.9896000027656555,
        0.9902999997138977
      ],
      "min": [
        0.0215000007301569,
        0.018699999898672104
      ],
      "type": "VEC2"
    },
    {
      "bufferView": 0,
      "byteOffset": 35592,
      "componentType": 5125,
      "count": 624,
      "type": "SCALAR"
    },
    {
      "bufferView": 2,
      "byteOffset": 79608,
      "componentType": 5126,
      "count": 3068,
      "max": [
        1.2204999923706055,
        -1.8906999826431274,
        88.42369842529297
      ],
      "min": [
        -13.967900276184082,
        -24.01129913330078,
        75.05339813232422
      ],
      "type": "VEC3"
    },
    {
      "bufferView": 2,
      "byteOffset": 116424,
      "componentType": 5126,
      "count": 3068,
      "max": [
        0.9991007447242737,
        0.9998964071273804,
        1.0
      ],
      "min": [
        -0.999435544013977,
        -0.9999837875366211,
        -1.0
      ],
      "type": "VEC3"
    },
    {
      "bufferView": 3,
      "byteOffset": 53072,
      "componentType": 5126,
      "count": 3068,
      "max": [
        0.9980106353759766,
        0.9997856616973877,
        1.0,
        1.0
      ],
      "min": [
        -0.9985386729240417,
        -0.9997398853302002,
        -1.0,
        -1.0
      ],
      "type": "VEC4"
    },
    {
      "bufferView": 1,
      "byteOffset": 26536,
      "componentType": 5126,
      "count": 3068,
      "max": [
        6.691199779510498,
        0.9984999895095825
      ],
      "min": [
        0.007899999618530273,
        -0.011800000444054604
      ],
      "type": "VEC2"
    },
    {
      "bufferView": 0,
      "byteOffset": 38088,
      "componentType": 5125,
      "count": 9330,
      "type": "SCALAR"
    },
    {
      "bufferView": 2,
      "byteOffset": 153240,
      "componentType": 5126,
      "count": 104,
      "max": [
        2.3803999423980713,
        2.2732999324798584,
        107.80259704589844
      ],
      "min": [
        -2.296099901199341,
        -2.3320999145507813,
        92.86180114746094
      ],
      "type": "VEC3"
    },
    {
      "bufferView": 2,
      "byteOffset": 154488,
      "componentType": 5126,
      "count": 104,
      "max": [
        0.9995793104171753,
        0.9992352724075317,
        0.0
      ],
      "min": [
        -0.9923439621925354,
        -0.9940195679664612,
        0.0
      ],
      "type": "VEC3"
    },
    {
      "bufferView": 1,
      "byteOffset": 51080,
      "componentType": 5126,
      "count": 104,
      "max": [
        0.9896000027656555,
        0.9664000272750854
      ],
      "min": [
        0.0284000001847744,
        0.6872000098228455
      ],
      "type": "VEC2"
    },
    {
      "bufferView": 0,
      "byteOffset": 75408,
      "componentType": 5125,
      "count": 240,
      "type": "SCALAR"
    },
    {
      "bufferView": 2,
      "byteOffset": 155736,
      "componentType": 5126,
      "count": 636,
      "max": [
        29.870100021362305,
        29.870100021362305,
        5.036300182342529
      ],
      "min": [
        -30.38960075378418,
        -30.38960075378418,
        0.0
      ],
      "type": "VEC3"
    },
    {
      "bufferView": 2,
      "byteOffset": 163368,
      "componentType": 5126,
      "count": 636,
      "max": [
        1.0,
        1.0,
        1.0
      ],
      "min": [
        -1.0,
        -1.0,
        0.0
      ],
      "type": "VEC3"
    },
    {
      "bufferView": 3,
      "byteOffset": 102160,
      "componentType": 5126,
      "count": 636,
      "max": [
        1.0,
        0.9881808757781982,
        1.0,
        1.0
      ],
      "min": [
        -0.9862121939659119,
        -0.9908096194267273,
        -1.0,
        1.0
      ],
      "type": "VEC4"
    },
    {
      "bufferView": 1,
      "byteOffset": 51912,
      "componentType": 5126,
      "count": 636,
      "max": [
        0.9797999858856201,
        0.9829000234603882
      ],
      "min": [
        0.014000000432133675,
        0.023800000548362732
      ],
      "type": "VEC2"
    },
    {
      "bufferView": 0,
      "byteOffset": 76368,
      "componentType": 5125,
      "count": 2235,
      "type": "SCALAR"
    },
    {
      "bufferView": 2,
      "byteOffset": 171000,
      "componentType": 5126,
      "count": 770,
      "max": [
        5.458899974822998,
        5.4303998947143555,
        188.6436004638672
      ],
      "min": [
        -5.427700042724609,
        -50.52389907836914,
        4.174200057983398
      ],
      "type": "VEC3"
    },
    {
      "bufferView": 2,
      "byteOffset": 180240,
      "componentType": 5126,
      "count": 770,
      "max": [
        1.0,
        1.0,
        1.0
      ],
      "min": [
        -1.0,
        -1.0,
        -1.0
      ],
      "type": "VEC3"
    },
    {
      "bufferView": 3,
      "byteOffset": 112336,
      "componentType": 5126,
      "count": 770,
      "max": [
        1.0,
        1.0,
        1.0,
        1.0
      ],
      "min": [
        -0.9999730587005615,
        -1.0,
        -1.0,
        -1.0
      ],
      "type": "VEC4"
    },
    {
      "bufferView": 1,
      "byteOffset": 57000,
      "componentType": 5126,
      "count": 770,
      "max": [
        0.9926000237464905,
        1.0012999773025513
      ],
      "min": [
        0.014800000004470348,
        0.012500000186264515
      ],
      "type": "VEC2"
    },
    {
      "bufferView": 0,
      "byteOffset": 85308,
      "componentType": 5125,
      "count": 2775,
      "type": "SCALAR"
    }
  ],
  "asset": {
    "extras": {
      "author": "sBjamms (https://sketchfab.com/sbjamms11)",
      "license": "CC-BY-4.0 (http://creativecommons.org/licenses/by/4.0/)",
      "source": "https://sketchfab.com/3d-models/lamp-post-253266bd74f24d09bce2655f0c7e9381",
      "title": "lamp post"
    },
    "generator": "Sketchfab-12.66.0",
    "version": "2.0"
  },
  "bufferViews": [
    {
      "buffer": 0,
      "byteLength": 96408,
      "name": "floatBufferViews",
      "target": 34963
    },
    {
      "buffer": 0,
      "byteLength": 63160,
      "byteOffset": 96408,
      "byteStride": 8,
      "name": "floatBufferViews",
      "target": 34962
    },
    {
      "buffer": 0,
      "byteLength": 189480,
      "byteOffset": 159568,
      "byteStride": 12,
      "name": "floatBufferViews",
      "target": 34962
    },
    {
      "buffer": 0,
      "byteLength": 124656,
      "byteOffset": 349048,
      "byteStride": 16,
      "name": "floatBufferViews",
      "target": 34962
    }
  ],
  "buffers": [
    {
      "byteLength": 473704,
      "uri": "scene.bin"
    }
  ],
  "images": [
    {
      "uri": "textures/03___Default_baseColor.png"
    },
    {
      "uri": "textures/03___Default_metallicRoughness.png"
    },
    {
      "uri": "textures/03___Default_normal.png"
    },
    {
      "uri": "textures/07___Default_baseColor.png"
    },
    {
      "uri": "textures/07___Default_metallicRoughness.png"
    },
    {
      "uri": "textures/07___Default_emissive.png"
    },
    {
      "uri": "textures/07___Default_normal.png"
    },
    {
      "uri": "textures/19___Default_baseColor.png"
    },
    {
      "uri": "textures/19___Default_metallicRoughness.png"
    },
    {
      "uri": "textures/19___Default_normal.png"
    },
    {
      "uri": "textures/20___Default_baseColor.png"
    },
    {
      "uri": "textures/21___Default_baseColor.png"
    },
    {
      "uri": "textures/wire_000000000_emissive.png"
    },
    {
      "uri": "textures/wire_176026026_baseColor.png"
    },
    {
      "uri": "textures/wire_176026026_metallicRoughness.png"
    },
    {
      "uri": "textures/wire_176026026_normal.png"
    },
    {
      "uri": "textures/wire_224198087_baseColor.png"
    },
    {
      "uri": "textures/wire_224198087_metallicRoughness.png"
    },
    {
      "uri": "textures/wire_224198087_emissive.png"
    },
    {
      "uri": "textures/wire_224198087_normal.png"
    }
  ],
  "materials": [
    {
      "doubleSided": true,
      "name": "03___Default",
      "normalTexture": {
        "index": 2
      },
      "occlusionTexture": {
        "index": 1
      },
      "pbrMetallicRoughness": {
        "baseColorTexture": {
          "index": 0
        },
        "metallicRoughnessTexture": {
          "index": 1
        }
      }
    },
    {
      "alphaMode": "BLEND",
      "doubleSided": true,
      "emissiveFactor": [
        1.0,
        1.0,
        1.0
      ],
      "emissiveTexture": {
        "index": 5
      },
      "name": "07___Default",
      "normalTexture": {
        "index": 6
      },
      "occlusionTexture": {
        "index": 4
      },
      "pbrMetallicRoughness": {
        "baseColorTexture": {
          "index": 3
        },
        "metallicRoughnessTexture": {
          "index": 4
        }
      }
    },
    {
      "doubleSided": true,
      "name": "19___Default",
      "normalTexture": {
        "index": 9
      },
      "occlusionTexture": {
        "index": 8
      },
      "pbrMetallicRoughness": {
        "baseColorTexture": {
          "index": 7
        },
        "metallicFactor": 0.9954927073,
        "metallicRoughnessTexture": {
          "index": 8
        },
        "roughnessFactor": 0.3602725815
      }
    },
    {
      "doubleSided": true,
      "name": "20___Default",
      "normalTexture": {
        "index": 9
      },
      "occlusionTexture": {
        "index": 8
      },
      "pbrMetallicRoughness": {
        "baseColorTexture": {
          "index": 10
        },
        "metallicRoughnessTexture": {
          "index": 8
        },
        "roughnessFactor": 0.36
      }
    },
    {
      "doubleSided": true,
      "name": "21___Default",
      "normalTexture": {
        "index": 9
      },
      "occlusionTexture": {
        "index": 8
      },
      "pbrMetallicRoughness": {
        "baseColorTexture": {
          "index": 11
        },
        "metallicRoughnessTexture": {
          "index": 8
        },
        "roughnessFactor": 0.36
      }
    },
    {
      "alphaMode": "BLEND",
      "doubleSided": true,
      "emissiveFactor": [
        1.0,
        1.0,
        1.0
      ],
      "emissiveTexture": {
        "index": 12
      },
      "name": "wire_000000000",
      "normalTexture": {
        "index": 6
      },
      "occlusionTexture": {
        "index": 4
      },
      "pbrMetallicRoughness": {
        "baseColorTexture": {
          "index": 3
        },
        "metallicRoughnessTexture": {
          "index": 4
        }
      }
    },
    {
      "doubleSided": true,
      "name": "wire_153228214",
      "pbrMetallicRoughness": {
        "roughnessFactor": 0.6
      }
    },
    {
      "doubleSided": true,
      "name": "wire_176026026",
      "normalTexture": {
        "index": 15
      },
      "occlusionTexture": {
        "index": 14
      },
      "pbrMetallicRoughness": {
        "baseColorTexture": {
          "index": 13
        },
        "metallicRoughnessTexture": {
          "index": 14
        }
      }
    },
    {
      "doubleSided": true,
      "emissiveFactor": [
        1.0,
        1.0,
        1.0
      ],
      "emissiveTexture": {
        "index": 18
      },
      "name": "wire_224198087",
      "normalTexture": {
        "index": 19
      },
      "occlusionTexture": {
        "index": 17
      },
      "pbrMetallicRoughness": {
        "baseColorTexture": {
          "index": 16
        },
        "metallicRoughnessTexture": {
          "index": 17
        }
      }
    }
  ],
  "meshes": [
    {
      "name": "Object_0",
      "primitives": [
        {
          "attributes": {
            "NORMAL": 1,
            "POSITION": 0,
            "TANGENT": 2,
            "TEXCOORD_0": 3
          },
          "indices": 4,
          "material": 0,
          "mode": 4
        }
      ]
    },
    {
      "name": "Object_1",
      "primitives": [
        {
          "attributes": {
            "NORMAL": 6,
            "POSITION": 5,
            "TANGENT": 7,
            "TEXCOORD_0": 8
          },
          "indices": 9,
          "material": 1,
          "mode": 4
        }
      ]
    },
    {
      "name": "Object_2",
      "primitives": [
        {
          "attributes": {
            "NORMAL": 11,
            "POSITION": 10,
            "TANGENT": 12,
            "TEXCOORD_0": 13
          },
          "indices": 14,
          "material": 2,
          "mode": 4
        }
      ]
    },
    {
      "name": "Object_3",
      "primitives": [
        {
          "attributes": {
            "NORMAL": 16,
            "POSITION": 15,
            "TANGENT": 17,
            "TEXCOORD_0": 18
          },
          "indices": 19,
          "material": 3,
          "mode": 4
        }
      ]
    },
    {
      "name": "Object_4",
      "primitives": [
        {
          "attributes": {
            "NORMAL": 21,
            "POSITION": 20,
            "TANGENT": 22,
            "TEXCOORD_0": 23
          },
          "indices": 24,
          "material": 4,
          "mode": 4
        }
      ]
    },
    {
      "name": "Object_5",
      "primitives": [
        {
          "attributes": {
            "NORMAL": 26,
            "POSITION": 25,
            "TANGENT": 27,
            "TEXCOORD_0": 28
          },
          "indices": 29,
          "material": 5,
          "mode": 4
        }
      ]
    },
    {
      "name": "Object_6",
      "primitives": [
        {
          "attributes": {
            "NORMAL": 31,
            "POSITION": 30,
            "TEXCOORD_0": 32
          },
          "indices": 33,
          "material": 6,
          "mode": 4
        }
      ]
    },
    {
      "name": "Object_7",
      "primitives": [
        {
          "attributes": {
            "NORMAL": 35,
            "POSITION": 34,
            "TANGENT": 36,
            "TEXCOORD_0": 37
          },
          "indices": 38,
          "material": 7,
          "mode": 4
        }
      ]
    },
    {
      "name": "Object_8",
      "primitives": [
        {
          "attributes": {
            "NORMAL": 40,
            "POSITION": 39,
            "TANGENT": 41,
            "TEXCOORD_0": 42
          },
          "indices": 43,
          "material": 8,
          "mode": 4
        }
      ]
    }
  ],
  "nodes": [
    {
      "children": [
        1
      ],
      "matrix": [
        0.0,
        2.220446049250313e-16,
        -1.0,
        0.0,
        -1.0,
        0.0,
        0.0,
        0.0,
        0.0,
        1.0,
        2.220446049250313e-16,
        0.0,
        -10.58655834197998,
        -2.2353561584625937e-15,
        10.06714916229248,
        1.0
      ],
      "name": "Sketchfab_model"
    },
    {
      "children": [
        2,
        3,
        4,
        5,
        6,
        7,
        8,
        9,
        10
      ],
      "name": "final_scene.obj.cleaner.materialmerger.gles"
    },
    {
      "mesh": 0,
      "name": "Object_2"
    },
    {
      "mesh": 1,
      "name": "Object_3"
    },
    {
      "mesh": 2,
      "name": "Object_4"
    },
    {
      "mesh": 3,
      "name": "Object_5"
    },
    {
      "mesh": 4,
      "name": "Object_6"
    },
    {
      "mesh": 5,
      "name": "Object_7"
    },
    {
      "mesh": 6,
      "name": "Object_8"
    },
    {
      "mesh": 7,
      "name": "Object_9"
    },
    {
      "mesh": 8,
      "name": "Object_10"
    }
  ],
  "samplers": [
    {
      "magFilter": 9729,
      "minFilter": 9987,
      "wrapS": 10497,
      "wrapT": 10497
    }
  ],
  "scene": 0,
  "scenes": [
    {
      "name": "Sketchfab_Scene",
      "nodes": [
        0
      ]
    }
  ],
  "textures": [
    {
      "sampler": 0,
      "source": 0
    },
    {
      "sampler": 0,
      "source": 1
    },
    {
      "sampler": 0,
      "source": 2
    },
    {
      "sampler": 0,
      "source": 3
    },
    {
      "sampler": 0,
      "source": 4
    },
    {
      "sampler": 0,
      "source": 5
    },
    {
      "sampler": 0,
      "source": 6
    },
    {
      "sampler": 0,
      "source": 7
    },
    {
      "sampler": 0,
      "source": 8
    },
    {
      "sampler": 0,
      "source": 9
    },
    {
      "sampler": 0,
      "source": 10
    },
    {
      "sampler": 0,
      "source": 11
    },
    {
      "sampler": 0,
      "source": 12
    },
    {
      "sampler": 0,
      "source": 13
    },
    {
      "sampler": 0,
      "source": 14
    },
    {
      "sampler": 0,
      "source": 15
    },
    {
      "sampler": 0,
      "source": 16
    },
    {
      "sampler": 0,
      "source": 17
    },
    {
      "sampler": 0,
      "source": 18
    },
    {
      "sampler": 0,
      "source": 19
    }
  ]
}
